<svg width="51" height="51" viewBox="0 0 51 51" fill="none" xmlns="http://www.w3.org/2000/svg">
<circle cx="25.1" cy="25.1" r="25.1" fill="white"/>
<g opacity="0.5">
<path d="M17 23V20C17 19.4696 17.2107 18.9609 17.5858 18.5858C17.9609 18.2107 18.4696 18 19 18H22M33 29V32C33 32.5304 32.7893 33.0391 32.4142 33.4142C32.0391 33.7893 31.5304 34 31 34H28M28 18H31C31.5304 18 32.0391 18.2107 32.4142 18.5858C32.7893 18.9609 33 19.4696 33 20V23M22 34H19C18.4696 34 17.9609 33.7893 17.5858 33.4142C17.2107 33.0391 17 32.5304 17 32V29" stroke="black" stroke-width="2" stroke-linecap="round" stroke-linejoin="round"/>
</g>
</svg>
