<svg width="34" height="34" viewBox="0 0 34 34" fill="none" xmlns="http://www.w3.org/2000/svg">
<path fill-rule="evenodd" clip-rule="evenodd" d="M16.9542 4.23877C13.5006 4.23877 13.0682 4.25318 11.7119 4.31507C10.358 4.37695 9.43317 4.59227 8.62444 4.90678C7.77671 5.22553 7.00782 5.72569 6.37202 6.37336C5.72539 7.00842 5.22492 7.77677 4.90545 8.62493C4.59263 9.43366 4.37646 10.3594 4.31458 11.7132C4.25354 13.0687 4.23828 13.5002 4.23828 16.9547C4.23828 20.4092 4.25269 20.8407 4.31458 22.1971C4.37646 23.5509 4.59178 24.4758 4.90629 25.2845C5.22504 26.1323 5.7252 26.9012 6.37287 27.537C7.00795 28.1836 7.77629 28.684 8.62444 29.0035C9.43317 29.3172 10.358 29.5325 11.7119 29.5944C13.0682 29.6563 13.5006 29.6707 16.9542 29.6707C20.4079 29.6707 20.8402 29.6563 22.1966 29.5944C23.5504 29.5325 24.4753 29.3172 25.284 29.0027C26.1318 28.6839 26.9007 28.1838 27.5365 27.5361C28.1831 26.901 28.6836 26.1327 29.003 25.2845C29.3167 24.4758 29.532 23.5509 29.5939 22.1971C29.6558 20.8407 29.6702 20.4084 29.6702 16.9547C29.6702 13.5011 29.6558 13.0687 29.5939 11.7124C29.532 10.3585 29.3167 9.43366 29.0022 8.62493C28.6829 7.7764 28.1825 7.00773 27.5356 6.37251C26.9006 5.72588 26.1322 5.22541 25.284 4.90593C24.4753 4.59312 23.5496 4.37695 22.1958 4.31507C20.8402 4.25403 20.4087 4.23877 16.9542 4.23877ZM16.9542 6.53019C20.3494 6.53019 20.7521 6.5429 22.0932 6.60394C23.3326 6.66074 24.0057 6.86673 24.4541 7.04221C25.0475 7.27195 25.4714 7.54831 25.9164 7.99252C26.3615 8.43758 26.637 8.86144 26.8668 9.45486C27.0414 9.90331 27.2482 10.5764 27.305 11.8158C27.3661 13.1569 27.3788 13.5596 27.3788 16.9547C27.3788 20.3499 27.3661 20.7526 27.305 22.0937C27.2482 23.3331 27.0422 24.0062 26.8668 24.4546C26.6632 25.0069 26.3385 25.5066 25.9164 25.9169C25.5062 26.3391 25.0065 26.6638 24.4541 26.8672C24.0057 27.0419 23.3326 27.2487 22.0932 27.3055C20.7521 27.3666 20.3502 27.3793 16.9542 27.3793C13.5582 27.3793 13.1564 27.3666 11.8153 27.3055C10.5759 27.2487 9.90282 27.0427 9.45437 26.8672C8.90203 26.6637 8.40234 26.339 7.99203 25.9169C7.57001 25.5066 7.24529 25.0069 7.04173 24.4546C6.86709 24.0062 6.66025 23.3331 6.60345 22.0937C6.54241 20.7526 6.5297 20.3499 6.5297 16.9547C6.5297 13.5596 6.54241 13.1569 6.60345 11.8158C6.66025 10.5764 6.86625 9.90331 7.04173 9.45486C7.27146 8.86144 7.54782 8.43758 7.99203 7.99252C8.40228 7.57039 8.90199 7.24565 9.45437 7.04221C9.90282 6.86758 10.5759 6.66074 11.8153 6.60394C13.1564 6.5429 13.5591 6.53019 16.9542 6.53019V6.53019Z" fill="#171717"/>
<path fill-rule="evenodd" clip-rule="evenodd" d="M16.954 21.1974C16.3968 21.1974 15.8451 21.0877 15.3303 20.8745C14.8155 20.6613 14.3478 20.3487 13.9538 19.9547C13.5598 19.5607 13.2473 19.093 13.0341 18.5782C12.8208 18.0635 12.7111 17.5117 12.7111 16.9546C12.7111 16.3974 12.8208 15.8456 13.0341 15.3309C13.2473 14.8161 13.5598 14.3484 13.9538 13.9544C14.3478 13.5604 14.8155 13.2479 15.3303 13.0346C15.8451 12.8214 16.3968 12.7117 16.954 12.7117C18.0793 12.7117 19.1585 13.1587 19.9541 13.9544C20.7498 14.7501 21.1969 15.8293 21.1969 16.9546C21.1969 18.0798 20.7498 19.159 19.9541 19.9547C19.1585 20.7504 18.0793 21.1974 16.954 21.1974V21.1974ZM16.954 10.4186C15.2205 10.4186 13.5581 11.1072 12.3323 12.3329C11.1066 13.5586 10.418 15.2211 10.418 16.9546C10.418 18.688 11.1066 20.3505 12.3323 21.5762C13.5581 22.8019 15.2205 23.4906 16.954 23.4906C18.6874 23.4906 20.3499 22.8019 21.5756 21.5762C22.8014 20.3505 23.49 18.688 23.49 16.9546C23.49 15.2211 22.8014 13.5586 21.5756 12.3329C20.3499 11.1072 18.6874 10.4186 16.954 10.4186V10.4186ZM25.3914 10.2999C25.3914 10.7096 25.2287 11.1026 24.9389 11.3923C24.6492 11.6821 24.2562 11.8449 23.8464 11.8449C23.4367 11.8449 23.0437 11.6821 22.754 11.3923C22.4642 11.1026 22.3015 10.7096 22.3015 10.2999C22.3015 9.89012 22.4642 9.49714 22.754 9.2074C23.0437 8.91766 23.4367 8.75488 23.8464 8.75488C24.2562 8.75488 24.6492 8.91766 24.9389 9.2074C25.2287 9.49714 25.3914 9.89012 25.3914 10.2999" fill="#171717"/>
</svg>