<svg width="30" height="31" viewBox="0 0 30 31" fill="none" xmlns="http://www.w3.org/2000/svg">
<path d="M28.0758 8.45459C27.1133 8.89209 26.0758 9.17959 25.0008 9.31709C26.1008 8.65459 26.9508 7.60459 27.3508 6.34209C26.3133 6.96709 25.1633 7.40459 23.9508 7.65459C22.9633 6.57959 21.5758 5.95459 20.0008 5.95459C17.0633 5.95459 14.6633 8.35459 14.6633 11.3171C14.6633 11.7421 14.7133 12.1546 14.8008 12.5421C10.3508 12.3171 6.38828 10.1796 3.75078 6.94209C3.28828 7.72959 3.02578 8.65459 3.02578 9.62959C3.02578 11.4921 3.96328 13.1421 5.41328 14.0796C4.52578 14.0796 3.70078 13.8296 2.97578 13.4546V13.4921C2.97578 16.0921 4.82578 18.2671 7.27578 18.7546C6.48919 18.9698 5.6634 18.9998 4.86328 18.8421C5.20279 19.9077 5.8677 20.8401 6.76455 21.5083C7.6614 22.1764 8.74509 22.5467 9.86328 22.5671C7.96782 24.0676 5.61828 24.8787 3.20078 24.8671C2.77578 24.8671 2.35078 24.8421 1.92578 24.7921C4.30078 26.3171 7.12578 27.2046 10.1508 27.2046C20.0008 27.2046 25.4133 19.0296 25.4133 11.9421C25.4133 11.7046 25.4133 11.4796 25.4008 11.2421C26.4508 10.4921 27.3508 9.54209 28.0758 8.45459Z" fill="#171717"/>
</svg>